<?xml version="1.0"?>
<!-- forge presentation artifact, not evidence: {"case": "re100-20", "execution": "e90b70e9d9d7e1117b7687cc74dd297bbf14fd0498d2c56eef2ccbb27d2b8aaf", "fields": {"pressure": "Pa", "velocity": "m/s"}, "mesh_digest": "8773546eaae6a81a05183d13b8fb8beef76ab4adb13cf248a5c94a5ef060e7fe", "provider": "su2 8.5.0"} -->
<VTKFile type="UnstructuredGrid" version="0.1" byte_order="LittleEndian">
<UnstructuredGrid>
<Piece NumberOfPoints="441" NumberOfCells="400">
<Points>
<DataArray type="Float64" NumberOfComponents="3" format="ascii">
0.0 0.0 0.0 0.005 0.0 0.0 0.01 0.0 0.0 0.015 0.0 0.0 0.02 0.0 0.0 0.025 0.0 0.0 0.03 0.0 0.0 0.035 0.0 0.0 0.04 0.0 0.0 0.045 0.0 0.0 0.05 0.0 0.0 0.055 0.0 0.0 0.06 0.0 0.0 0.065 0.0 0.0 0.07 0.0 0.0 0.075 0.0 0.0 0.08 0.0 0.0 0.085 0.0 0.0 0.09 0.0 0.0 0.095 0.0 0.0 0.1 0.0 0.0 0.0 0.005 0.0 0.005 0.005 0.0 0.01 0.005 0.0 0.015 0.005 0.0 0.02 0.005 0.0 0.025 0.005 0.0 0.03 0.005 0.0 0.035 0.005 0.0 0.04 0.005 0.0 0.045 0.005 0.0 0.05 0.005 0.0 0.055 0.005 0.0 0.06 0.005 0.0 0.065 0.005 0.0 0.07 0.005 0.0 0.075 0.005 0.0 0.08 0.005 0.0 0.085 0.005 0.0 0.09 0.005 0.0 0.095 0.005 0.0 0.1 0.005 0.0 0.0 0.01 0.0 0.005 0.01 0.0 0.01 0.01 0.0 0.015 0.01 0.0 0.02 0.01 0.0 0.025 0.01 0.0 0.03 0.01 0.0 0.035 0.01 0.0 0.04 0.01 0.0 0.045 0.01 0.0 0.05 0.01 0.0 0.055 0.01 0.0 0.06 0.01 0.0 0.065 0.01 0.0 0.07 0.01 0.0 0.075 0.01 0.0 0.08 0.01 0.0 0.085 0.01 0.0 0.09 0.01 0.0 0.095 0.01 0.0 0.1 0.01 0.0 0.0 0.015 0.0 0.005 0.015 0.0 0.01 0.015 0.0 0.015 0.015 0.0 0.02 0.015 0.0 0.025 0.015 0.0 0.03 0.015 0.0 0.035 0.015 0.0 0.04 0.015 0.0 0.045 0.015 0.0 0.05 0.015 0.0 0.055 0.015 0.0 0.06 0.015 0.0 0.065 0.015 0.0 0.07 0.015 0.0 0.075 0.015 0.0 0.08 0.015 0.0 0.085 0.015 0.0 0.09 0.015 0.0 0.095 0.015 0.0 0.1 0.015 0.0 0.0 0.02 0.0 0.005 0.02 0.0 0.01 0.02 0.0 0.015 0.02 0.0 0.02 0.02 0.0 0.025 0.02 0.0 0.03 0.02 0.0 0.035 0.02 0.0 0.04 0.02 0.0 0.045 0.02 0.0 0.05 0.02 0.0 0.055 0.02 0.0 0.06 0.02 0.0 0.065 0.02 0.0 0.07 0.02 0.0 0.075 0.02 0.0 0.08 0.02 0.0 0.085 0.02 0.0 0.09 0.02 0.0 0.095 0.02 0.0 0.1 0.02 0.0 0.0 0.025 0.0 0.005 0.025 0.0 0.01 0.025 0.0 0.015 0.025 0.0 0.02 0.025 0.0 0.025 0.025 0.0 0.03 0.025 0.0 0.035 0.025 0.0 0.04 0.025 0.0 0.045 0.025 0.0 0.05 0.025 0.0 0.055 0.025 0.0 0.06 0.025 0.0 0.065 0.025 0.0 0.07 0.025 0.0 0.075 0.025 0.0 0.08 0.025 0.0 0.085 0.025 0.0 0.09 0.025 0.0 0.095 0.025 0.0 0.1 0.025 0.0 0.0 0.03 0.0 0.005 0.03 0.0 0.01 0.03 0.0 0.015 0.03 0.0 0.02 0.03 0.0 0.025 0.03 0.0 0.03 0.03 0.0 0.035 0.03 0.0 0.04 0.03 0.0 0.045 0.03 0.0 0.05 0.03 0.0 0.055 0.03 0.0 0.06 0.03 0.0 0.065 0.03 0.0 0.07 0.03 0.0 0.075 0.03 0.0 0.08 0.03 0.0 0.085 0.03 0.0 0.09 0.03 0.0 0.095 0.03 0.0 0.1 0.03 0.0 0.0 0.035 0.0 0.005 0.035 0.0 0.01 0.035 0.0 0.015 0.035 0.0 0.02 0.035 0.0 0.025 0.035 0.0 0.03 0.035 0.0 0.035 0.035 0.0 0.04 0.035 0.0 0.045 0.035 0.0 0.05 0.035 0.0 0.055 0.035 0.0 0.06 0.035 0.0 0.065 0.035 0.0 0.07 0.035 0.0 0.075 0.035 0.0 0.08 0.035 0.0 0.085 0.035 0.0 0.09 0.035 0.0 0.095 0.035 0.0 0.1 0.035 0.0 0.0 0.04 0.0 0.005 0.04 0.0 0.01 0.04 0.0 0.015 0.04 0.0 0.02 0.04 0.0 0.025 0.04 0.0 0.03 0.04 0.0 0.035 0.04 0.0 0.04 0.04 0.0 0.045 0.04 0.0 0.05 0.04 0.0 0.055 0.04 0.0 0.06 0.04 0.0 0.065 0.04 0.0 0.07 0.04 0.0 0.075 0.04 0.0 0.08 0.04 0.0 0.085 0.04 0.0 0.09 0.04 0.0 0.095 0.04 0.0 0.1 0.04 0.0 0.0 0.045 0.0 0.005 0.045 0.0 0.01 0.045 0.0 0.015 0.045 0.0 0.02 0.045 0.0 0.025 0.045 0.0 0.03 0.045 0.0 0.035 0.045 0.0 0.04 0.045 0.0 0.045 0.045 0.0 0.05 0.045 0.0 0.055 0.045 0.0 0.06 0.045 0.0 0.065 0.045 0.0 0.07 0.045 0.0 0.075 0.045 0.0 0.08 0.045 0.0 0.085 0.045 0.0 0.09 0.045 0.0 0.095 0.045 0.0 0.1 0.045 0.0 0.0 0.05 0.0 0.005 0.05 0.0 0.01 0.05 0.0 0.015 0.05 0.0 0.02 0.05 0.0 0.025 0.05 0.0 0.03 0.05 0.0 0.035 0.05 0.0 0.04 0.05 0.0 0.045 0.05 0.0 0.05 0.05 0.0 0.055 0.05 0.0 0.06 0.05 0.0 0.065 0.05 0.0 0.07 0.05 0.0 0.075 0.05 0.0 0.08 0.05 0.0 0.085 0.05 0.0 0.09 0.05 0.0 0.095 0.05 0.0 0.1 0.05 0.0 0.0 0.055 0.0 0.005 0.055 0.0 0.01 0.055 0.0 0.015 0.055 0.0 0.02 0.055 0.0 0.025 0.055 0.0 0.03 0.055 0.0 0.035 0.055 0.0 0.04 0.055 0.0 0.045 0.055 0.0 0.05 0.055 0.0 0.055 0.055 0.0 0.06 0.055 0.0 0.065 0.055 0.0 0.07 0.055 0.0 0.075 0.055 0.0 0.08 0.055 0.0 0.085 0.055 0.0 0.09 0.055 0.0 0.095 0.055 0.0 0.1 0.055 0.0 0.0 0.06 0.0 0.005 0.06 0.0 0.01 0.06 0.0 0.015 0.06 0.0 0.02 0.06 0.0 0.025 0.06 0.0 0.03 0.06 0.0 0.035 0.06 0.0 0.04 0.06 0.0 0.045 0.06 0.0 0.05 0.06 0.0 0.055 0.06 0.0 0.06 0.06 0.0 0.065 0.06 0.0 0.07 0.06 0.0 0.075 0.06 0.0 0.08 0.06 0.0 0.085 0.06 0.0 0.09 0.06 0.0 0.095 0.06 0.0 0.1 0.06 0.0 0.0 0.065 0.0 0.005 0.065 0.0 0.01 0.065 0.0 0.015 0.065 0.0 0.02 0.065 0.0 0.025 0.065 0.0 0.03 0.065 0.0 0.035 0.065 0.0 0.04 0.065 0.0 0.045 0.065 0.0 0.05 0.065 0.0 0.055 0.065 0.0 0.06 0.065 0.0 0.065 0.065 0.0 0.07 0.065 0.0 0.075 0.065 0.0 0.08 0.065 0.0 0.085 0.065 0.0 0.09 0.065 0.0 0.095 0.065 0.0 0.1 0.065 0.0 0.0 0.07 0.0 0.005 0.07 0.0 0.01 0.07 0.0 0.015 0.07 0.0 0.02 0.07 0.0 0.025 0.07 0.0 0.03 0.07 0.0 0.035 0.07 0.0 0.04 0.07 0.0 0.045 0.07 0.0 0.05 0.07 0.0 0.055 0.07 0.0 0.06 0.07 0.0 0.065 0.07 0.0 0.07 0.07 0.0 0.075 0.07 0.0 0.08 0.07 0.0 0.085 0.07 0.0 0.09 0.07 0.0 0.095 0.07 0.0 0.1 0.07 0.0 0.0 0.075 0.0 0.005 0.075 0.0 0.01 0.075 0.0 0.015 0.075 0.0 0.02 0.075 0.0 0.025 0.075 0.0 0.03 0.075 0.0 0.035 0.075 0.0 0.04 0.075 0.0 0.045 0.075 0.0 0.05 0.075 0.0 0.055 0.075 0.0 0.06 0.075 0.0 0.065 0.075 0.0 0.07 0.075 0.0 0.075 0.075 0.0 0.08 0.075 0.0 0.085 0.075 0.0 0.09 0.075 0.0 0.095 0.075 0.0 0.1 0.075 0.0 0.0 0.08 0.0 0.005 0.08 0.0 0.01 0.08 0.0 0.015 0.08 0.0 0.02 0.08 0.0 0.025 0.08 0.0 0.03 0.08 0.0 0.035 0.08 0.0 0.04 0.08 0.0 0.045 0.08 0.0 0.05 0.08 0.0 0.055 0.08 0.0 0.06 0.08 0.0 0.065 0.08 0.0 0.07 0.08 0.0 0.075 0.08 0.0 0.08 0.08 0.0 0.085 0.08 0.0 0.09 0.08 0.0 0.095 0.08 0.0 0.1 0.08 0.0 0.0 0.085 0.0 0.005 0.085 0.0 0.01 0.085 0.0 0.015 0.085 0.0 0.02 0.085 0.0 0.025 0.085 0.0 0.03 0.085 0.0 0.035 0.085 0.0 0.04 0.085 0.0 0.045 0.085 0.0 0.05 0.085 0.0 0.055 0.085 0.0 0.06 0.085 0.0 0.065 0.085 0.0 0.07 0.085 0.0 0.075 0.085 0.0 0.08 0.085 0.0 0.085 0.085 0.0 0.09 0.085 0.0 0.095 0.085 0.0 0.1 0.085 0.0 0.0 0.09 0.0 0.005 0.09 0.0 0.01 0.09 0.0 0.015 0.09 0.0 0.02 0.09 0.0 0.025 0.09 0.0 0.03 0.09 0.0 0.035 0.09 0.0 0.04 0.09 0.0 0.045 0.09 0.0 0.05 0.09 0.0 0.055 0.09 0.0 0.06 0.09 0.0 0.065 0.09 0.0 0.07 0.09 0.0 0.075 0.09 0.0 0.08 0.09 0.0 0.085 0.09 0.0 0.09 0.09 0.0 0.095 0.09 0.0 0.1 0.09 0.0 0.0 0.095 0.0 0.005 0.095 0.0 0.01 0.095 0.0 0.015 0.095 0.0 0.02 0.095 0.0 0.025 0.095 0.0 0.03 0.095 0.0 0.035 0.095 0.0 0.04 0.095 0.0 0.045 0.095 0.0 0.05 0.095 0.0 0.055 0.095 0.0 0.06 0.095 0.0 0.065 0.095 0.0 0.07 0.095 0.0 0.075 0.095 0.0 0.08 0.095 0.0 0.085 0.095 0.0 0.09 0.095 0.0 0.095 0.095 0.0 0.1 0.095 0.0 0.0 0.1 0.0 0.005 0.1 0.0 0.01 0.1 0.0 0.015 0.1 0.0 0.02 0.1 0.0 0.025 0.1 0.0 0.03 0.1 0.0 0.035 0.1 0.0 0.04 0.1 0.0 0.045 0.1 0.0 0.05 0.1 0.0 0.055 0.1 0.0 0.06 0.1 0.0 0.065 0.1 0.0 0.07 0.1 0.0 0.075 0.1 0.0 0.08 0.1 0.0 0.085 0.1 0.0 0.09 0.1 0.0 0.095 0.1 0.0 0.1 0.1 0.0
</DataArray>
</Points>
<Cells>
<DataArray type="Int64" Name="connectivity" format="ascii">
0 1 22 21 1 2 23 22 2 3 24 23 3 4 25 24 4 5 26 25 5 6 27 26 6 7 28 27 7 8 29 28 8 9 30 29 9 10 31 30 10 11 32 31 11 12 33 32 12 13 34 33 13 14 35 34 14 15 36 35 15 16 37 36 16 17 38 37 17 18 39 38 18 19 40 39 19 20 41 40 21 22 43 42 22 23 44 43 23 24 45 44 24 25 46 45 25 26 47 46 26 27 48 47 27 28 49 48 28 29 50 49 29 30 51 50 30 31 52 51 31 32 53 52 32 33 54 53 33 34 55 54 34 35 56 55 35 36 57 56 36 37 58 57 37 38 59 58 38 39 60 59 39 40 61 60 40 41 62 61 42 43 64 63 43 44 65 64 44 45 66 65 45 46 67 66 46 47 68 67 47 48 69 68 48 49 70 69 49 50 71 70 50 51 72 71 51 52 73 72 52 53 74 73 53 54 75 74 54 55 76 75 55 56 77 76 56 57 78 77 57 58 79 78 58 59 80 79 59 60 81 80 60 61 82 81 61 62 83 82 63 64 85 84 64 65 86 85 65 66 87 86 66 67 88 87 67 68 89 88 68 69 90 89 69 70 91 90 70 71 92 91 71 72 93 92 72 73 94 93 73 74 95 94 74 75 96 95 75 76 97 96 76 77 98 97 77 78 99 98 78 79 100 99 79 80 101 100 80 81 102 101 81 82 103 102 82 83 104 103 84 85 106 105 85 86 107 106 86 87 108 107 87 88 109 108 88 89 110 109 89 90 111 110 90 91 112 111 91 92 113 112 92 93 114 113 93 94 115 114 94 95 116 115 95 96 117 116 96 97 118 117 97 98 119 118 98 99 120 119 99 100 121 120 100 101 122 121 101 102 123 122 102 103 124 123 103 104 125 124 105 106 127 126 106 107 128 127 107 108 129 128 108 109 130 129 109 110 131 130 110 111 132 131 111 112 133 132 112 113 134 133 113 114 135 134 114 115 136 135 115 116 137 136 116 117 138 137 117 118 139 138 118 119 140 139 119 120 141 140 120 121 142 141 121 122 143 142 122 123 144 143 123 124 145 144 124 125 146 145 126 127 148 147 127 128 149 148 128 129 150 149 129 130 151 150 130 131 152 151 131 132 153 152 132 133 154 153 133 134 155 154 134 135 156 155 135 136 157 156 136 137 158 157 137 138 159 158 138 139 160 159 139 140 161 160 140 141 162 161 141 142 163 162 142 143 164 163 143 144 165 164 144 145 166 165 145 146 167 166 147 148 169 168 148 149 170 169 149 150 171 170 150 151 172 171 151 152 173 172 152 153 174 173 153 154 175 174 154 155 176 175 155 156 177 176 156 157 178 177 157 158 179 178 158 159 180 179 159 160 181 180 160 161 182 181 161 162 183 182 162 163 184 183 163 164 185 184 164 165 186 185 165 166 187 186 166 167 188 187 168 169 190 189 169 170 191 190 170 171 192 191 171 172 193 192 172 173 194 193 173 174 195 194 174 175 196 195 175 176 197 196 176 177 198 197 177 178 199 198 178 179 200 199 179 180 201 200 180 181 202 201 181 182 203 202 182 183 204 203 183 184 205 204 184 185 206 205 185 186 207 206 186 187 208 207 187 188 209 208 189 190 211 210 190 191 212 211 191 192 213 212 192 193 214 213 193 194 215 214 194 195 216 215 195 196 217 216 196 197 218 217 197 198 219 218 198 199 220 219 199 200 221 220 200 201 222 221 201 202 223 222 202 203 224 223 203 204 225 224 204 205 226 225 205 206 227 226 206 207 228 227 207 208 229 228 208 209 230 229 210 211 232 231 211 212 233 232 212 213 234 233 213 214 235 234 214 215 236 235 215 216 237 236 216 217 238 237 217 218 239 238 218 219 240 239 219 220 241 240 220 221 242 241 221 222 243 242 222 223 244 243 223 224 245 244 224 225 246 245 225 226 247 246 226 227 248 247 227 228 249 248 228 229 250 249 229 230 251 250 231 232 253 252 232 233 254 253 233 234 255 254 234 235 256 255 235 236 257 256 236 237 258 257 237 238 259 258 238 239 260 259 239 240 261 260 240 241 262 261 241 242 263 262 242 243 264 263 243 244 265 264 244 245 266 265 245 246 267 266 246 247 268 267 247 248 269 268 248 249 270 269 249 250 271 270 250 251 272 271 252 253 274 273 253 254 275 274 254 255 276 275 255 256 277 276 256 257 278 277 257 258 279 278 258 259 280 279 259 260 281 280 260 261 282 281 261 262 283 282 262 263 284 283 263 264 285 284 264 265 286 285 265 266 287 286 266 267 288 287 267 268 289 288 268 269 290 289 269 270 291 290 270 271 292 291 271 272 293 292 273 274 295 294 274 275 296 295 275 276 297 296 276 277 298 297 277 278 299 298 278 279 300 299 279 280 301 300 280 281 302 301 281 282 303 302 282 283 304 303 283 284 305 304 284 285 306 305 285 286 307 306 286 287 308 307 287 288 309 308 288 289 310 309 289 290 311 310 290 291 312 311 291 292 313 312 292 293 314 313 294 295 316 315 295 296 317 316 296 297 318 317 297 298 319 318 298 299 320 319 299 300 321 320 300 301 322 321 301 302 323 322 302 303 324 323 303 304 325 324 304 305 326 325 305 306 327 326 306 307 328 327 307 308 329 328 308 309 330 329 309 310 331 330 310 311 332 331 311 312 333 332 312 313 334 333 313 314 335 334 315 316 337 336 316 317 338 337 317 318 339 338 318 319 340 339 319 320 341 340 320 321 342 341 321 322 343 342 322 323 344 343 323 324 345 344 324 325 346 345 325 326 347 346 326 327 348 347 327 328 349 348 328 329 350 349 329 330 351 350 330 331 352 351 331 332 353 352 332 333 354 353 333 334 355 354 334 335 356 355 336 337 358 357 337 338 359 358 338 339 360 359 339 340 361 360 340 341 362 361 341 342 363 362 342 343 364 363 343 344 365 364 344 345 366 365 345 346 367 366 346 347 368 367 347 348 369 368 348 349 370 369 349 350 371 370 350 351 372 371 351 352 373 372 352 353 374 373 353 354 375 374 354 355 376 375 355 356 377 376 357 358 379 378 358 359 380 379 359 360 381 380 360 361 382 381 361 362 383 382 362 363 384 383 363 364 385 384 364 365 386 385 365 366 387 386 366 367 388 387 367 368 389 388 368 369 390 389 369 370 391 390 370 371 392 391 371 372 393 392 372 373 394 393 373 374 395 394 374 375 396 395 375 376 397 396 376 377 398 397 378 379 400 399 379 380 401 400 380 381 402 401 381 382 403 402 382 383 404 403 383 384 405 404 384 385 406 405 385 386 407 406 386 387 408 407 387 388 409 408 388 389 410 409 389 390 411 410 390 391 412 411 391 392 413 412 392 393 414 413 393 394 415 414 394 395 416 415 395 396 417 416 396 397 418 417 397 398 419 418 399 400 421 420 400 401 422 421 401 402 423 422 402 403 424 423 403 404 425 424 404 405 426 425 405 406 427 426 406 407 428 427 407 408 429 428 408 409 430 429 409 410 431 430 410 411 432 431 411 412 433 432 412 413 434 433 413 414 435 434 414 415 436 435 415 416 437 436 416 417 438 437 417 418 439 438 418 419 440 439
</DataArray>
<DataArray type="Int64" Name="offsets" format="ascii">
4 8 12 16 20 24 28 32 36 40 44 48 52 56 60 64 68 72 76 80 84 88 92 96 100 104 108 112 116 120 124 128 132 136 140 144 148 152 156 160 164 168 172 176 180 184 188 192 196 200 204 208 212 216 220 224 228 232 236 240 244 248 252 256 260 264 268 272 276 280 284 288 292 296 300 304 308 312 316 320 324 328 332 336 340 344 348 352 356 360 364 368 372 376 380 384 388 392 396 400 404 408 412 416 420 424 428 432 436 440 444 448 452 456 460 464 468 472 476 480 484 488 492 496 500 504 508 512 516 520 524 528 532 536 540 544 548 552 556 560 564 568 572 576 580 584 588 592 596 600 604 608 612 616 620 624 628 632 636 640 644 648 652 656 660 664 668 672 676 680 684 688 692 696 700 704 708 712 716 720 724 728 732 736 740 744 748 752 756 760 764 768 772 776 780 784 788 792 796 800 804 808 812 816 820 824 828 832 836 840 844 848 852 856 860 864 868 872 876 880 884 888 892 896 900 904 908 912 916 920 924 928 932 936 940 944 948 952 956 960 964 968 972 976 980 984 988 992 996 1000 1004 1008 1012 1016 1020 1024 1028 1032 1036 1040 1044 1048 1052 1056 1060 1064 1068 1072 1076 1080 1084 1088 1092 1096 1100 1104 1108 1112 1116 1120 1124 1128 1132 1136 1140 1144 1148 1152 1156 1160 1164 1168 1172 1176 1180 1184 1188 1192 1196 1200 1204 1208 1212 1216 1220 1224 1228 1232 1236 1240 1244 1248 1252 1256 1260 1264 1268 1272 1276 1280 1284 1288 1292 1296 1300 1304 1308 1312 1316 1320 1324 1328 1332 1336 1340 1344 1348 1352 1356 1360 1364 1368 1372 1376 1380 1384 1388 1392 1396 1400 1404 1408 1412 1416 1420 1424 1428 1432 1436 1440 1444 1448 1452 1456 1460 1464 1468 1472 1476 1480 1484 1488 1492 1496 1500 1504 1508 1512 1516 1520 1524 1528 1532 1536 1540 1544 1548 1552 1556 1560 1564 1568 1572 1576 1580 1584 1588 1592 1596 1600
</DataArray>
<DataArray type="UInt8" Name="types" format="ascii">
9 9 9 9 9 9 9 9 9 9 9 9 9 9 9 9 9 9 9 9 9 9 9 9 9 9 9 9 9 9 9 9 9 9 9 9 9 9 9 9 9 9 9 9 9 9 9 9 9 9 9 9 9 9 9 9 9 9 9 9 9 9 9 9 9 9 9 9 9 9 9 9 9 9 9 9 9 9 9 9 9 9 9 9 9 9 9 9 9 9 9 9 9 9 9 9 9 9 9 9 9 9 9 9 9 9 9 9 9 9 9 9 9 9 9 9 9 9 9 9 9 9 9 9 9 9 9 9 9 9 9 9 9 9 9 9 9 9 9 9 9 9 9 9 9 9 9 9 9 9 9 9 9 9 9 9 9 9 9 9 9 9 9 9 9 9 9 9 9 9 9 9 9 9 9 9 9 9 9 9 9 9 9 9 9 9 9 9 9 9 9 9 9 9 9 9 9 9 9 9 9 9 9 9 9 9 9 9 9 9 9 9 9 9 9 9 9 9 9 9 9 9 9 9 9 9 9 9 9 9 9 9 9 9 9 9 9 9 9 9 9 9 9 9 9 9 9 9 9 9 9 9 9 9 9 9 9 9 9 9 9 9 9 9 9 9 9 9 9 9 9 9 9 9 9 9 9 9 9 9 9 9 9 9 9 9 9 9 9 9 9 9 9 9 9 9 9 9 9 9 9 9 9 9 9 9 9 9 9 9 9 9 9 9 9 9 9 9 9 9 9 9 9 9 9 9 9 9 9 9 9 9 9 9 9 9 9 9 9 9 9 9 9 9 9 9 9 9 9 9 9 9 9 9 9 9 9 9 9 9 9 9 9 9 9 9 9 9 9 9 9 9 9 9 9 9 9 9 9 9 9 9 9 9 9 9 9 9 9 9 9 9 9 9 9 9 9 9 9 9
</DataArray>
</Cells>
<PointData>
<DataArray type="Float64" Name="velocity [m/s]" NumberOfComponents="3" format="ascii">
0.0 0.0 0.0 0.0 0.0 0.0 0.0 0.0 0.0 0.0 0.0 0.0 0.0 0.0 0.0 0.0 0.0 0.0 0.0 0.0 0.0 0.0 0.0 0.0 0.0 0.0 0.0 0.0 0.0 0.0 0.0 0.0 0.0 0.0 0.0 0.0 0.0 0.0 0.0 0.0 0.0 0.0 0.0 0.0 0.0 0.0 0.0 0.0 0.0 0.0 0.0 0.0 0.0 0.0 0.0 0.0 0.0 0.0 0.0 0.0 0.0 0.0 0.0 0.0 0.0 0.0 -3.75968070282377e-07 3.800508160169444e-07 0.0 -2.2241603038586e-06 1.004685190397962e-06 0.0 -5.285725257087102e-06 1.507948799008203e-06 0.0 -9.315100484894842e-06 1.77906150951422e-06 0.0 -1.384477402683434e-05 1.8833526100129e-06 0.0 -1.846017300575202e-05 1.836528143125441e-06 0.0 -2.277600695254363e-05 1.643009722795604e-06 0.0 -2.64224145611746e-05 1.303532861681341e-06 0.0 -2.904116437567418e-05 8.240246179594519e-07 0.0 -3.03099195629033e-05 2.254977570489053e-07 0.0 -2.999072981745982e-05 -4.475220354444729e-07 0.0 -2.799277090171097e-05 -1.124245145074076e-06 0.0 -2.442991669680198e-05 -1.712982254287318e-06 0.0 -1.965323945965894e-05 -2.115049767390265e-06 0.0 -1.423967419162905e-05 -2.24670653361038e-06 0.0 -8.925009997257522e-06 -2.06391935221084e-06 0.0 -4.472872499891714e-06 -1.580587617039309e-06 0.0 -1.505493381134768e-06 -8.499924621256494e-07 0.0 -1.57686810640796e-07 -1.461826927547241e-07 0.0 0.0 0.0 0.0 0.0 0.0 0.0 -1.058806596967817e-06 2.325392048373742e-06 0.0 -5.143375923677259e-06 4.952175593886589e-06 0.0 -1.110164186084325e-05 7.094172315084253e-06 0.0 -1.852977812425484e-05 8.364951979660595e-06 0.0 -2.668249295445447e-05 8.836772601312728e-06 0.0 -3.487393108277448e-05 8.5799061752028e-06 0.0 -4.244934962638215e-05 7.631364924053722e-06 0.0 -4.878053223767101e-05 6.007717746175077e-06 0.0 -5.327204424150139e-05 3.747603528529665e-06 0.0 -5.54043613315901e-05 9.580880811469097e-07 0.0 -5.480831461203675e-05 -2.150269914822238e-06 0.0 -5.135656424494977e-05 -5.25446027134013e-06 0.0 -4.524528937569781e-05 -7.94487630518141e-06 0.0 -3.70394932241571e-05 -9.785746321102322e-06 0.0 -2.765588367114986e-05 -1.04057121393003e-05 0.0 -1.826453305024504e-05 -9.603842692920669e-06 0.0 -1.009073929049555e-05 -7.453777809346154e-06 0.0 -4.165011996505566e-06 -4.36759417199531e-06 0.0 -7.864591300026538e-07 -1.420700078896942e-06 0.0 0.0 0.0 0.0 0.0 0.0 0.0 -1.745085734250916e-06 5.827215141726183e-06 0.0 -8.09861361989211e-06 1.125015692568026e-05 0.0 -1.675775249148041e-05 1.540762352236623e-05 0.0 -2.714902464505274e-05 1.784647944057045e-05 0.0 -3.831495902242373e-05 1.867640506362701e-05 0.0 -4.939882790744524e-05 1.801990594256876e-05 0.0 -5.95764853840006e-05 1.59472340064279e-05 0.0 -6.805635172951711e-05 1.25014234635932e-05 0.0 -7.40924368624575e-05 7.775885674306499e-06 0.0 -7.703629055927678e-05 1.998217134906861e-06 0.0 -7.642150797311676e-05 -4.407620271733782e-06 0.0 -7.206617724068675e-05 -1.080526678569257e-05 0.0 -6.4171651125297e-05 -1.639226680841384e-05 0.0 -5.338739679245103e-05 -2.031017164604055e-05 0.0 -4.081014049517153e-05 -2.181291011815244e-05 0.0 -2.78899220821417e-05 -2.047232924034689e-05 0.0 -1.620825738973009e-05 -1.638996971278288e-05 0.0 -7.209330873006186e-06 -1.034221456680754e-05 0.0 -1.470179843473646e-06 -4.172319499658037e-06 0.0 0.0 0.0 0.0 0.0 0.0 0.0 -2.320074116192815e-06 1.091210778438106e-05 0.0 -1.070996489871766e-05 1.99416743346334e-05 0.0 -2.178554652425763e-05 2.646061806568685e-05 0.0 -3.479102680941096e-05 3.017882481135533e-05 0.0 -4.857677154738707e-05 3.131718620822345e-05 0.0 -6.216762362693861e-05 3.007322564610491e-05 0.0 -7.463865124431878e-05 2.655684855841587e-05 0.0 -8.51026312554144e-05 2.084166595927455e-05 0.0 -9.271481675746467e-05 1.30812311895541e-05 0.0 -9.671967812141523e-05 3.631604461802887e-06 0.0 -9.653381856787155e-05 -6.856346610630061e-06 0.0 -9.185542515708947e-05 -1.740503749774686e-05 0.0 -8.278669842996094e-05 -2.676531762591395e-05 0.0 -6.993942243829399e-05 -3.356831033865018e-05 0.0 -5.448382551504024e-05 -3.657354365357526e-05 0.0 -3.809809404513178e-05 -3.499264173943662e-05 0.0 -2.275290680158937e-05 -2.884100532327656e-05 0.0 -1.04350009818948e-05 -1.919313835606441e-05 0.0 -2.146011809395349e-06 -8.626348276544973e-06 0.0 0.0 0.0 0.0 0.0 0.0 0.0 -2.803617354808767e-06 1.735470188778127e-05 0.0 -1.29017435250676e-05 3.0709257580626e-05 0.0 -2.603007074333507e-05 3.988525148024968e-05 0.0 -4.127105363777301e-05 4.496012005824723e-05 0.0 -5.731660554687368e-05 4.63633041471436e-05 0.0 -7.311713535861596e-05 4.440981009079115e-05 0.0 -8.770124062811889e-05 3.926205999109247e-05 0.0 -0.0001001390338409016 3.101989408156276e-05 0.0 -0.0001095244842622546 1.987896435302825e-05 0.0 -0.0001150026761152641 6.294468767512287e-06 0.0 -0.0001158394238726207 -8.888978056139786e-06 0.0 -0.0001115327880722756 -2.437155116755673e-05 0.0 -0.0001019648787755949 -3.843638718339674e-05 0.0 -8.757205106356762e-05 -4.911909973581024e-05 0.0 -6.948187398128624e-05 -5.452565505008504e-05 0.0 -4.955306945435196e-05 -5.329182883586808e-05 0.0 -3.020156190460197e-05 -4.51254691355279e-05 0.0 -1.412328479698249e-05 -3.124362709504736e-05 0.0 -2.923878658197065e-06 -1.494698506864724e-05 0.0 0.0 0.0 0.0 0.0 0.0 0.0 -3.182097192619887e-06 2.489781971491063e-05 0.0 -1.46124342227107e-05 4.318062488653907e-05 0.0 -2.936661977142799e-05 5.528016738592415e-05 0.0 -4.640669122095147e-05 6.179953174467536e-05 0.0 -6.431350200970879e-05 6.347371228094615e-05 0.0 -8.200787229910269e-05 6.078675637503352e-05 0.0 -9.85224227518961e-05 5.397120102598273e-05 0.0 -0.0001129347157585551 4.314235061847294e-05 0.0 -0.0001243163933061557 2.849985438651312e-05 0.0 -0.0001317278613685179 1.053505062065823e-05 0.0 -0.0001342608711318576 -9.791494756781432e-06 0.0 -0.0001311424659632753 -3.092631825871163e-05 0.0 -0.0001219105104393357 -5.070441236703122e-05 0.0 -0.0001066639566482904 -6.649246497581287e-05 0.0 -8.632543958540151e-05 -7.554755135979106e-05 0.0 -6.283186268501482e-05 -7.562111657567544e-05 0.0 -3.906259676015845e-05 -6.575983299407373e-05 0.0 -1.859888121410981e-05 -4.704875661037323e-05 0.0 -3.882382492000221e-06 -2.348791262876161e-05 0.0 0.0 0.0 0.0 0.0 0.0 0.0 -3.441380916212844e-06 3.325030590303111e-05 0.0 -1.578729724517387e-05 5.692043321506905e-05 0.0 -3.167673565921695e-05 7.216372576572277e-05 0.0 -4.999625487196508e-05 8.022305520266544e-05 0.0 -6.926769936890753e-05 8.22265242745738e-05 0.0 -8.842791678789679e-05 7.88825026912932e-05 0.0 -0.0001065644832982476 7.051619020091329e-05 0.0 -0.0001228173523643133 5.724608112972287e-05 0.0 -0.0001362884702510204 3.922554872284473e-05 0.0 -0.0001459933272733114 1.6893576260635e-05 0.0 -0.0001508612352850608 -8.79123341659167e-06 0.0 -0.0001498141580389257 -3.614661473984834e-05 0.0 -0.0001419430908855909 -6.264237757459437e-05 0.0 -0.0001268325675687097 -8.495014935345688e-05 0.0 -0.0001049735052586185 -9.928124652390707e-05 0.0 -7.817497443315057e-05 -0.0001021122826496282 0.0 -4.969619080365575e-05 -9.130997156852924e-05 0.0 -2.414587154232759e-05 -6.735631778041945e-05 0.0 -5.092056066665529e-06 -3.480145897146196e-05 0.0 0.0 0.0 0.0 0.0 0.0 0.0 -3.573136638954729e-06 4.20996003501648e-05 0.0 -1.638838689997948e-05 7.144646105028136e-05 0.0 -3.286268967602985e-05 8.997854733811758e-05 0.0 -5.184334993738703e-05 9.96520406294521e-05 0.0 -7.18406785284179e-05 0.0001020657083594138 0.0 -9.185094261044086e-05 9.821090450113309e-05 0.0 -0.0001110682375561688 8.853610413287728e-05 0.0 -0.000128757102269932 7.315728179859938e-05 0.0 -0.0001441216040513998 5.213191635171726e-05 0.0 -0.0001562077986082082 2.574778204379478e-05 0.0 -0.0001638479724179854 -5.184105165618103e-06 0.0 -0.0001656894578817556 -3.903364699015741e-05 0.0 -0.0001603338222814195 -7.307585496947049e-05 0.0 -0.0001466940732371028 -0.0001033612343414183 0.0 -0.0001245492475208826 -0.0001249249223226299 0.0 -9.523934229209945e-05 -0.000132543861899069 0.0 -6.214489544160153e-05 -0.0001222030398405215 0.0 -3.093077697202219e-05 -9.300751854907301e-05 0.0 -6.606373123460953e-06 -4.961415827397995e-05 0.0 0.0 0.0 0.0 0.0 0.0 0.0 -3.580975274663206e-06 5.113140334202253e-05 0.0 -1.642279142039897e-05 8.624885031840897e-05 0.0 -3.289370011861592e-05 0.0001080959894488546 0.0 -5.182053481703238e-05 0.0001193824097603443 0.0 -7.17392181678438e-05 0.0001222513953075867 0.0 -9.174561406013017e-05 0.0001180421371589612 0.0 -0.0001111919048238265 0.0001073688786872764 0.0 -0.0001295347932040685 9.035440357104768e-05 0.0 -0.0001461688697092773 6.692632154040258e-05 0.0 -0.0001602813031916055 3.713269868410626e-05 0.0 -0.0001707342254089949 1.48390425170048e-06 0.0 -0.0001760109472600871 -3.866193379452926e-05 0.0 -0.0001742878780066972 -8.06514467358004e-05 0.0 -0.0001637284562494359 -0.0001201449245138407 0.0 -0.0001431196745977256 -0.0001510365342069076 0.0 -0.0001128628850407362 -0.0001660492960023757 0.0 -7.595817635999489e-05 -0.0001584362999135051 0.0 -3.891924968539563e-05 -0.0001247432588009362 0.0 -8.444066204389395e-06 -6.875923104730664e-05 0.0 0.0 0.0 0.0 0.0 0.0 0.0 -3.489653890556109e-06 6.007249819481912e-05 0.0 -1.598227430271543e-05 0.0001008336265505168 0.0 -3.186981068487793e-05 0.000125841277841488 0.0 -4.995484807073381e-05 0.0001385854205823503 0.0 -6.88261456452299e-05 0.0001418376630104489 0.0 -8.772108410595638e-05 0.000137359520812384 0.0 -0.0001062033283175822 0.0001259860508670996 0.0 -0.0001239904187019846 0.0001078753774815907 0.0 -0.0001407614313261021 8.281893674943812e-05 0.0 -0.0001559756106924207 5.056917754330767e-05 0.0 -0.0001686988549322166 1.120635509626271e-05 0.0 -0.0001774541059795252 -3.440752247799949e-05 0.0 -0.0001801780867028226 -8.403222765218185e-05 0.0 -0.0001743587186842658 -0.0001333539638174462 0.0 -0.0001576118490925679 -0.00017543600475781 0.0 -0.0001288784573494948 -0.0002008361835335717 0.0 -9.000962885567891e-05 -0.0001992139656027893 0.0 -4.777488972408882e-05 -0.000162918800942908 0.0 -1.056669134987993e-05 -9.306494228926627e-05 0.0 0.0 0.0 0.0 0.0 0.0 0.0 -3.361067011872777e-06 6.876242987637605e-05 0.0 -1.529217795544763e-05 0.0001147925516768375 0.0 -3.009135336668198e-05 0.0001425367490984934 0.0 -4.651205179133998e-05 0.0001563260784737029 0.0 -6.322425659818556e-05 0.0001596770031489732 0.0 -7.966557250946962e-05 0.0001548585592080519 0.0 -9.567415527776948e-05 0.0001429872397475856 0.0 -0.0001112951744723348 0.0001242988151493621 0.0 -0.0001265765191927421 9.847237045421239e-05 0.0 -0.0001413737415051433 6.49572675316478e-05 0.0 -0.0001551425421722071 2.333365902858242e-05 0.0 -0.0001667092640630078 -2.621382862020551e-05 0.0 -0.0001740740500406051 -8.221479383886386e-05 0.0 -0.0001743257293383694 -0.0001409470329202277 0.0 -0.0001639597711749972 -0.0001952988106423936 0.0 -0.0001400464960951325 -0.0002340115863707793 0.0 -0.0001023331082260821 -0.0002425609058803502 0.0 -5.674299970125158e-05 -0.0002071201122752383 0.0 -1.286561563550301e-05 -0.0001231805019477264 0.0 0.0 0.0 0.0 0.0 0.0 0.0 -3.317256406865756e-06 7.725755323589727e-05 0.0 -1.476048781168248e-05 0.0001278919044365498 0.0 -2.810941295768407e-05 0.0001575479180249527 0.0 -4.203664926939171e-05 0.0001715831872486081 0.0 -5.535233784441552e-05 0.0001744396187699872 0.0 -6.779820927567705e-05 0.000168982858494838 0.0 -7.957412011007693e-05 0.00015665758550649 0.0 -9.111778259005171e-05 0.0001378146651792735 0.0 -0.0001029058905743514 0.0001120629483664 0.0 -0.0001152761550038706 7.85904959331132e-05 0.0 -0.0001282238241927687 3.648940119244248e-05 0.0 -0.0001411340614666987 -1.48168148823972e-05 0.0 -0.0001524483756261782 -7.490476250069849e-05 0.0 -0.000159324833708901 -0.0001412451816622185 0.0 -0.0001575226842055797 -0.0002075169895157673 0.0 -0.0001421722957938208 -0.0002616378772420406 0.0 -0.0001100112389825866 -0.0002850076644889877 0.0 -6.450916019916618e-05 -0.0002556881737891106 0.0 -1.516747443856412e-05 -0.0001593029189717928 0.0 0.0 0.0 0.0 0.0 0.0 0.0 -3.53296654181736e-06 8.596237565286102e-05 0.0 -1.49864401451541e-05 0.0001401556969040551 0.0 -2.669483245604968e-05 0.0001702926471173542 0.0 -3.72573654892281e-05 0.0001832321200105618 0.0 -4.577860930629023e-05 0.0001846155176095193 0.0 -5.249785923157149e-05 0.0001779705965654795 0.0 -5.810550413957833e-05 0.0001650652698849409 0.0 -6.349485029425368e-05 0.0001463659530661587 0.0 -6.959538617874497e-05 0.0001214463850089792 0.0 -7.724953639168338e-05 8.930742333026748e-05 0.0 -8.706066476812452e-05 4.864669572550459e-05 0.0 -9.914856954153925e-05 -1.819010337307648e-06 0.0 -0.0001127569710705953 -6.281409105732307e-05 0.0 -0.0001256859105166164 -0.0001334626021878181 0.0 -0.0001336832449988253 -0.0002093132695679199 0.0 -0.0001304235397482704 -0.0002791171816684536 0.0 -0.0001091524085439615 -0.0003214812251556329 0.0 -6.898566335916913e-05 -0.0003051998456068561 0.0 -1.711911613877807e-05 -0.0002007335894783544 0.0 0.0 0.0 0.0 0.0 0.0 0.0 -4.067869322710229e-06 9.577523728367013e-05 0.0 -1.662145340419535e-05 0.0001518945812798049 0.0 -2.656970472618532e-05 0.0001801319266695583 0.0 -3.264711676602483e-05 0.0001899191631366499 0.0 -3.464684403603822e-05 0.0001884477192787089 0.0 -3.364862981443091e-05 0.0001798714139675029 0.0 -3.101032477529449e-05 0.0001661609242709762 0.0 -2.81305886706556e-05 0.0001478209903580177 0.0 -2.636708334546759e-05 0.0001243889477567168 0.0 -2.701324024864844e-05 9.475795904299057e-05 0.0 -3.124423731845941e-05 5.738355356116312e-05 0.0 -3.995980646286522e-05 1.046979814875811e-05 0.0 -5.343779689615725e-05 -4.77190104089273e-05 0.0 -7.066602928790563e-05 -0.0001180999021663964 0.0 -8.831637466559095e-05 -0.0001989466361028423 0.0 -9.972444409199503e-05 -0.0002818922885265782 0.0 -9.500146388418795e-05 -0.0003455497003077702 0.0 -6.710192204912731e-05 -0.0003501453278666225 0.0 -1.765097159608472e-05 -0.0002453465843044146 0.0 0.0 0.0 0.0 0.0 0.0 0.0 -4.55065435403755e-06 0.0001082095103428062 0.0 -1.995689224350816e-05 0.0001635162381686026 0.0 -2.754007129176898e-05 0.0001859430348345935 0.0 -2.712757344747727e-05 0.0001896961407521945 0.0 -2.012190815305052e-05 0.0001837320518127991 0.0 -8.967530110287166e-06 0.0001725050001046474 0.0 4.137475023142116e-06 0.0001578617846685602 0.0 1.730647323333008e-05 0.0001401571924272935 0.0 2.885722186437984e-05 0.000118836891464942 0.0 3.718502514217591e-05 9.275039732795596e-05 0.0 4.068699151287089e-05 6.028959610732896e-05 0.0 3.778292329417648e-05 1.944051932959724e-05 0.0 2.712291427195063e-05 -3.216895506701572e-05 0.0 8.1668099755832e-06 -9.6952813805428e-05 0.0 -1.760517097533808e-05 -0.0001761772668634868 0.0 -4.483246597055157e-05 -0.0002661801815982881 0.0 -6.208651501075301e-05 -0.0003497836339882766 0.0 -5.507195825397423e-05 -0.0003827022956471201 0.0 -1.472388280601227e-05 -0.0002892057311844662 0.0 0.0 0.0 0.0 0.0 0.0 0.0 -4.995887539621866e-06 0.0001252093553861128 0.0 -2.408972435501275e-05 0.0001744282625578417 0.0 -2.603048194111538e-05 0.0001849205337049881 0.0 -1.467480212735314e-05 0.0001792705082002164 0.0 5.30483026798179e-06 0.0001675174434269172 0.0 2.965733043623732e-05 0.0001534683651640705 0.0 5.542677493729288e-05 0.0001382413551194544 0.0 8.04650471734295e-05 0.0001217617922503247 0.0 0.0001030147750090238 0.0001033050350341836 0.0 0.0001214104630601861 8.172769806475635e-05 0.0 0.0001338771274196896 5.553640593002734e-05 0.0 0.0001384059745484026 2.283585448407679e-05 0.0 0.0001327616370595142 -1.884334190006784e-05 0.0 0.0001147728605992593 -7.27184674131965e-05 0.0 8.335456811990941e-05 -0.0001424265375969289 0.0 4.075618118286791e-05 -0.0002296425845405894 0.0 -3.251961292044529e-06 -0.0003260827549164403 0.0 -2.872837103418274e-05 -0.0003922326195122978 0.0 -8.926166974729832e-06 -0.0003269091665581864 0.0 0.0 0.0 0.0 0.0 0.0 0.0 -9.713640243859362e-06 0.000145973181856327 0.0 -2.321262024271782e-05 0.0001781708092855505 0.0 -7.675622648106614e-06 0.0001694447466061387 0.0 2.383378182922426e-05 0.0001527263149787046 0.0 6.240704811902285e-05 0.0001359341682453207 0.0 0.0001028390180059156 0.0001204599534546037 0.0 0.0001423494785361255 0.000106068057354372 0.0 0.0001792175722824343 9.207798865380478e-05 0.0 0.0002120910742131024 7.758489507136165e-05 0.0 0.0002396192951672126 6.153074275062312e-05 0.0 0.0002602084131999773 4.270105724129396e-05 0.0 0.0002718182582816707 1.96256438158373e-05 0.0 0.0002717892227661037 -9.678697024144238e-06 0.0 0.0002567332277634696 -4.818752067921216e-05 0.0 0.0002228410643775208 -0.000100416464528647 0.0 0.0001675217171950726 -0.0001721024333958725 0.0 9.406213658499358e-05 -0.0002653457371101589 0.0 2.08990699042208e-05 -0.0003585311229610622 0.0 -8.392096030667044e-06 -0.0003443514701702435 0.0 0.0 0.0 0.0 0.0 0.0 0.0 -1.922420737830528e-05 0.0001585011625605593 0.0 1.599730222953883e-05 0.0001550261714488305 0.0 7.433438544304762e-05 0.000127009761392111 0.0 0.0001374514503660559 0.0001044200783637244 0.0 0.000197348757492576 8.758521909939742e-05 0.0 0.0002521930207245648 7.445016430905172e-05 0.0 0.0003016724945477902 6.358520218640333e-05 0.0 0.0003456201989928956 5.399280664384266e-05 0.0 0.0003836979622341206 4.479317113579439e-05 0.0 0.0004152784658691077 3.516319708939224e-05 0.0 0.0004393114606683701 2.430105742963117e-05 0.0 0.0004541740572320564 1.133511325822831e-05 0.0 0.0004574698893873882 -4.87593025811114e-06 0.0 0.0004456754693361479 -2.617310254016783e-05 0.0 0.0004135795226199969 -5.588210326975332e-05 0.0 0.000353814005556806 -9.992923253456186e-05 0.0 0.000258243865393917 -0.0001672420506846567 0.0 0.0001287847708839052 -0.0002604432089025515 0.0 -4.684333915085024e-06 -0.0003143743796346838 0.0 0.0 0.0 0.0 0.0 0.0 0.0 8.760417598175034e-05 7.147346946127713e-05 0.0 0.0002249788638093968 4.815747116877166e-05 0.0 0.0003351196246837132 3.243328435084648e-05 0.0 0.0004193242753899968 2.617349956702219e-05 0.0 0.0004845712115642458 2.20678278822781e-05 0.0 0.0005373355014720075 1.835684630125015e-05 0.0 0.0005810433602533412 1.523334767038273e-05 0.0 0.0006174909065445168 1.265965434500226e-05 0.0 0.0006475724678977032 1.033510814123956e-05 0.0 0.0006715344750528981 7.97185013868057e-06 0.0 0.0006890471329628829 5.347861143417429e-06 0.0 0.0006992296851694869 2.246287122918676e-06 0.0 0.0007005947804557286 -1.635281079069045e-06 0.0 0.0006907803928066558 -6.788881465664225e-06 0.0 0.0006657059016195354 -1.384527604112694e-05 0.0 0.0006174167308586918 -2.334411661262256e-05 0.0 0.0005302088802406269 -3.778742965417551e-05 0.0 0.0003804469131216733 -6.98469028825199e-05 0.0 0.0001481435533223091 -0.0001279590248521378 0.0 0.0 0.0 0.0 0.001003395079516685 0.0 0.0 0.001003395079510306 0.0 0.0 0.001003395079501418 0.0 0.0 0.001003395079486296 0.0 0.0 0.001003395079473288 0.0 0.0 0.001003395079469589 0.0 0.0 0.001003395079476234 0.0 0.0 0.00100339507949052 0.0 0.0 0.001003395079508448 0.0 0.0 0.001003395079525869 0.0 0.0 0.001003395079539139 0.0 0.0 0.001003395079545606 0.0 0.0 0.001003395079543899 0.0 0.0 0.00100339507953404 0.0 0.0 0.00100339507951751 0.0 0.0 0.001003395079497152 0.0 0.0 0.00100339507947679 0.0 0.0 0.001003395079460585 0.0 0.0 0.00100339507945239 0.0 0.0 0.001003395079457028 0.0 0.0 0.001003395079490386 0.0 0.0
</DataArray>
<DataArray type="Float64" Name="pressure [Pa]" NumberOfComponents="1" format="ascii">
4.551921664832667e-06 3.54464996726677e-06 1.690459060958251e-06 -2.122503612617845e-07 -1.39994532656993e-06 -1.766997718855777e-06 -1.375187266906314e-06 -2.595450362491416e-07 1.571275020841848e-06 4.081141557652389e-06 7.154005730090266e-06 1.055846695547551e-05 1.394156979962737e-05 1.686213444083317e-05 1.886535001472703e-05 1.958537487813681e-05 1.88522150537753e-05 1.680490845193269e-05 1.406385547041372e-05 1.190379509292202e-05 1.119383271740909e-05 5.894436859228857e-06 4.690607452287635e-06 4.262215304606621e-06 3.795079162720722e-06 3.584850425464754e-06 3.613745702518557e-06 3.907169400164404e-06 4.477063163402918e-06 5.326192009789379e-06 6.434994974295963e-06 7.750108857079015e-06 9.17714103546726e-06 1.058214375322251e-05 1.180577143888576e-05 1.269245905108267e-05 1.312959684667053e-05 1.30830615121657e-05 1.262732262411132e-05 1.190534256123259e-05 1.130769889497385e-05 1.080985479921114e-05 8.083655847049543e-06 5.105254120203226e-06 4.668862345443972e-06 4.168445462600435e-06 3.968291526222233e-06 3.983730216073146e-06 4.227866116401705e-06 4.710330737271603e-06 5.442437798547487e-06 6.419504739067e-06 7.606003798352864e-06 8.924449267107858e-06 1.025266982134701e-05 1.143492821492599e-05 1.231006914146432e-05 1.275222916346458e-05 1.270859533423119e-05 1.223791250299092e-05 1.143469193627003e-05 1.076881809278361e-05 8.975686245573167e-06 1.05435663195394e-05 5.521644290083001e-06 5.083397782451032e-06 4.546066215473861e-06 4.352206773671257e-06 4.334486008459341e-06 4.496916726999548e-06 4.850190787495009e-06 5.41860907049162e-06 6.218153103717051e-06 7.238091037767486e-06 8.423895360185586e-06 9.668973371823313e-06 1.082249313074655e-05 1.171468111237498e-05 1.219821432659811e-05 1.218876826962502e-05 1.171701059459138e-05 1.079574484352821e-05 1.002012226987139e-05 6.310423537476461e-06 1.251869636580927e-05 5.595711553213085e-06 5.104530704676726e-06 4.46948376100263e-06 4.226129462904077e-06 4.132871234313502e-06 4.189914222007855e-06 4.413305104228802e-06 4.843713611906877e-06 5.520126509415337e-06 6.457246347980613e-06 7.62174633506489e-06 8.916309267957486e-06 1.018244233340157e-05 1.122299083538341e-05 1.184598179005551e-05 1.19122469461283e-05 1.141171523126991e-05 1.026910769088706e-05 9.277514960787999e-06 3.441063888460566e-06 1.370379049679304e-05 5.223784219166141e-06 4.672842581327247e-06 3.931348931521187e-06 3.615385996606944e-06 3.41858243953666e-06 3.340602902056503e-06 3.407001989417662e-06 3.679137212866021e-06 4.224172458324604e-06 5.088782480243844e-06 6.268722994171867e-06 7.682177241084075e-06 9.164307032987436e-06 1.048353059390265e-05 1.138458199723818e-05 1.164377779535595e-05 1.118039110582448e-05 9.797974614588606e-06 8.538062491284539e-06 3.234033304833923e-07 1.394663858503093e-05 4.274941898083116e-06 3.664404633639236e-06 2.814344482857762e-06 2.402887785856491e-06 2.071360167275705e-06 1.820934920266023e-06 1.689544345504695e-06 1.762854487389314e-06 2.14196544247595e-06 2.914391657168624e-06 4.118474787447298e-06 5.702547506520144e-06 7.505508802297702e-06 9.261035516193734e-06 1.063299171402462e-05 1.127536974585166e-05 1.099047808497329e-05 9.399600774384175e-06 7.84347233808332e-06 -3.302197297682001e-06 1.312892468940814e-05 2.650212094539404e-06 1.985293112642319e-06 1.029761981008105e-06 5.007587819674519e-07 -3.178530359694439e-10 -4.705437947270249e-07 -8.585716156700461e-07 -1.051984544848173e-06 -9.098570560771869e-07 -2.928539577905664e-07 8.985599750824375e-07 2.667372295885418e-06 4.879306490404717e-06 7.245519562096542e-06 9.338771698580164e-06 1.064782319077955e-05 1.07920050057701e-05 9.106619137913298e-06 7.270200714471386e-06 -7.664894391576654e-06 1.117211809809824e-05 2.82088521452215e-07 -4.288563444817841e-07 -1.482902199829777e-06 -2.148622198912111e-06 -2.854725466918344e-06 -3.598656410540123e-06 -4.317099179925133e-06 -4.870491810944576e-06 -5.073433878926595e-06 -4.723284314698915e-06 -3.638437262088682e-06 -1.728047852807092e-06 9.39517910711375e-07 4.084645547551145e-06 7.196669762784362e-06 9.560615179215594e-06 1.05290198253508e-05 8.992490288748187e-06 6.971065748477865e-06 -1.287260452084129e-05 8.075415823705797e-06 -2.859711518674143e-06 -3.601622544834033e-06 -4.738694238138698e-06 -5.547951175585423e-06 -6.484444960442314e-06 -7.55122135608144e-06 -8.677467760744723e-06 -9.698723975554626e-06 -1.038288856135309e-05 -1.045392302725673e-05 -9.631610354313577e-06 -7.697912693563504e-06 -4.600076304134483e-06 -5.545493504529148e-07 3.884421907135936e-06 7.783775290775872e-06 1.014178937477018e-05 9.187182492005664e-06 7.217037027425436e-06 -1.88434877590478e-05 3.952876678447137e-06 -6.772257936601267e-06 -7.513702649536695e-06 -8.698300091190506e-06 -9.627367684578418e-06 -1.078976790412265e-05 -1.220314289014292e-05 -1.379675800249127e-05 -1.538614919250546e-05 -1.669323102985612e-05 -1.736248440627824e-05 -1.699947604210991e-05 -1.522879945841693e-05 -1.182041942867474e-05 -6.848528077313729e-06 -8.290861720271273e-07 5.124935292189872e-06 9.600245738879721e-06 9.907640442338926e-06 8.453478139623696e-06 -2.520800386275567e-05 -9.434398937794949e-07 -1.143616992381044e-05 -1.210986187002987e-05 -1.326507975511608e-05 -1.423156778327316e-05 -1.555790774198273e-05 -1.728887663045645e-05 -1.936305618465382e-05 -2.158166674809997e-05 -2.362291783941988e-05 -2.504978942044917e-05 -2.534195935476274e-05 -2.395101071915134e-05 -2.042854031076219e-05 -1.462328375015785e-05 -6.895885371474886e-06 1.576042485649003e-06 8.995134171451313e-06 1.152062925730634e-05 1.137584783627911e-05 -3.11198558898316e-05 -6.239223626974322e-06 -1.685408907717626e-05 -1.731811026610019e-05 -1.828825445583749e-05 -1.911408666580359e-05 -2.045544748560914e-05 -2.239718064645354e-05 -2.489379846774147e-05 -2.773432561918642e-05 -3.055328953557706e-05 -3.283090151595863e-05 -3.391569769687186e-05 -3.307967322564237e-05 -2.963983730363372e-05 -2.316792449197901e-05 -1.37540595169311e-05 -2.457370959717043e-06 8.710560028905004e-06 1.466974109670417e-05 1.704821777960546e-05 -3.479960177416557e-05 -1.143782639429418e-05 -2.31224426236213e-05 -2.30767343282763e-05 -2.356372626104525e-05 -2.393559545699853e-05 -2.503808611765036e-05 -2.699859545087157e-05 -2.978282275021007e-05 -3.31595026172178e-05 -3.671166088742062e-05 -3.983111783934185e-05 -4.173094195931286e-05 -4.149688619217017e-05 -3.821389306234925e-05 -3.117452968410072e-05 -2.014399811909844e-05 -5.892007753453868e-06 9.67106749049444e-06 2.04812707508546e-05 2.711577549101506e-05 -3.287449341241932e-05 -1.54931291716692e-05 -3.053237103690959e-05 -2.933651051000808e-05 -2.880917211774757e-05 -2.826102750201371e-05 -2.87831477829556e-05 -3.051391311219397e-05 -3.34021498042826e-05 -3.717167759204151e-05 -4.133342472637403e-05 -4.517631930046027e-05 -4.776823756670731e-05 -4.799761090964894e-05 -4.470735199322935e-05 -3.692728788878975e-05 -2.413514140137166e-05 -6.798464225176931e-06 1.354166985205565e-05 3.059514141740779e-05 4.38725637988867e-05 -2.121494963514549e-05 -1.563681878891138e-05 -3.964885638428784e-05 -3.598740627726154e-05 -3.361259392407117e-05 -3.158752149013916e-05 -3.117791161327222e-05 -3.244390940031555e-05 -3.525990150642182e-05 -3.926375227491124e-05 -4.386556093891396e-05 -4.822899071042162e-05 -5.126029739195041e-05 -5.163090652738865e-05 -4.789250941648662e-05 -3.874778574859246e-05 -2.343792492805627e-05 -2.353253125848015e-06 2.315496327754716e-05 4.742195336234346e-05 6.998918734546775e-05 4.55980408644968e-07 -1.000592607621217e-05 -5.118501888524519e-05 -4.271831741526238e-05 -3.742079056340056e-05 -3.345612583915158e-05 -3.187535315834081e-05 -3.252530853475938e-05 -3.515176387016934e-05 -3.925970135818736e-05 -4.412263747605285e-05 -4.875768143830538e-05 -5.189819166493783e-05 -5.198221530015239e-05 -4.720602795696616e-05 -3.578130335428764e-05 -1.64905057887305e-05 1.039736142837944e-05 4.248157725133402e-05 7.396208066478034e-05 0.0001066882225481528 3.144244445755464e-05 -2.230256247275721e-05 -6.740009639778224e-05 -5.070318906198103e-05 -4.092215553747838e-05 -3.442639174054887e-05 -3.132667772745788e-05 -3.11850811114851e-05 -3.350198241603646e-05 -3.757172057213764e-05 -4.248172692265835e-05 -4.708822363014297e-05 -4.99600393328606e-05 -4.93170065505179e-05 -4.29830870140889e-05 -2.847647463859533e-05 -3.505959643168481e-06 3.282215974397399e-05 7.774853867681502e-05 0.0001230670604223032 0.0001647061533567352 0.0001200823281960254 -0.000151667456458022 -8.818068742606248e-05 -5.966162878795723e-05 -4.17201292912367e-05 -3.2160537975317e-05 -2.766471375915601e-05 -2.70174566953113e-05 -2.927288045932579e-05 -3.345492460127992e-05 -3.846036551724283e-05 -4.30241294303659e-05 -4.561779517522577e-05 -4.433747473513208e-05 -3.677314485686599e-05 -1.98910995134055e-05 9.856103310528133e-06 5.571913900000161e-05 0.0001179707622590566 0.0001911345683379405 0.0002500280943982598 0.0004298800575974158 -0.0004786170462534213 -0.0002011934595362201 -0.0001102148394368426 -6.451846255751262e-05 -4.25348667669858e-05 -3.156897314710935e-05 -2.773720845937929e-05 -2.838160070100532e-05 -3.159379912768468e-05 -3.58345142099901e-05 -3.964045052947725e-05 -4.136215400869684e-05 -3.900606829884995e-05 -3.008340752918996e-05 -1.133234453091178e-05 2.184179596885987e-05 7.626462432637785e-05 0.0001618840255667063 0.0002941210849212108 0.0004838257278075799 0.001008526617135355 -0.0004792026823499295 -1.451546773678424e-05 0.0001238081369546555 0.000105513418707293 7.242601343802669e-05 5.381773280547775e-05 4.104386902896512e-05 2.819479531256806e-05 1.479026659186018e-05 1.571014283326706e-06 -1.083137997436785e-05 -2.161129690975755e-05 -2.949119361283883e-05 -3.262817822945971e-05 -2.885873348485736e-05 -1.757226118657163e-05 -5.092122473186939e-06 -5.419017484271481e-06 7.920993620302905e-06 0.0002412022446252992 0.001030829635769423
</DataArray>
</PointData>
</Piece>
</UnstructuredGrid>
</VTKFile>
